<?xml version="1.0" standalone="no"?>
<!DOCTYPE svg PUBLIC "-//W3C//DTD SVG 20010904//EN"
 "http://www.w3.org/TR/2001/REC-SVG-20010904/DTD/svg10.dtd">
<svg version="1.0" xmlns="http://www.w3.org/2000/svg"
 width="512.000000pt" height="512.000000pt" viewBox="0 0 512.000000 512.000000"
 preserveAspectRatio="xMidYMid meet">
<metadata>
Created by potrace 1.14, written by Peter Selinger 2001-2017
</metadata>
<g transform="translate(0.000000,512.000000) scale(0.100000,-0.100000)"
fill="#000000" stroke="none">
<path d="M2497 4384 c-1 -1 -31 -5 -67 -8 -234 -25 -436 -120 -626 -297 -53
-50 -69 -59 -101 -60 -21 0 -47 -2 -58 -4 -11 -2 -45 -6 -75 -9 -110 -12 -192
-36 -303 -93 -380 -191 -602 -644 -513 -1048 68 -312 231 -529 511 -680 39
-21 72 -39 74 -42 3 -2 5 -54 6 -116 2 -111 9 -140 43 -179 19 -22 40 -23 91
-2 31 12 43 24 52 52 12 38 19 340 8 370 -4 10 -35 26 -80 40 -142 44 -264
131 -359 257 -119 158 -170 320 -164 513 11 336 271 634 635 729 13 3 82 7
153 8 l129 1 24 30 c66 79 155 162 221 205 70 46 197 102 258 114 187 35 411
18 527 -40 16 -8 34 -15 38 -15 8 0 69 -36 129 -77 14 -9 71 -63 127 -120
l101 -104 64 8 c74 10 189 0 268 -23 57 -16 161 -61 170 -73 3 -3 17 -12 32
-20 54 -28 178 -153 232 -234 30 -45 69 -118 87 -162 32 -82 59 -219 53 -278
-22 -220 -67 -329 -191 -466 -84 -93 -191 -162 -314 -202 -68 -22 -99 -37
-100 -48 -1 -9 -3 -286 -4 -616 -1 -330 -3 -610 -4 -622 -1 -31 -56 -90 -105
-115 -41 -22 -43 -22 -916 -22 -950 0 -886 -4 -963 57 -56 44 -74 87 -72 178
1 83 20 126 77 174 75 63 19 59 853 61 502 1 769 5 786 12 40 16 59 40 59 76
0 43 -29 76 -77 87 -21 4 -378 8 -795 8 -839 0 -815 2 -915 -66 -122 -82 -163
-187 -159 -398 3 -94 7 -119 29 -168 49 -107 159 -194 273 -214 27 -5 445 -8
930 -7 684 1 892 4 931 14 106 27 213 128 250 235 16 45 18 107 19 590 1 297
3 548 3 558 1 11 21 26 56 42 31 13 88 47 129 75 491 339 564 1032 155 1464
-181 191 -439 304 -697 306 -38 0 -49 6 -90 47 -175 173 -387 278 -627 309
-47 6 -203 12 -208 8z"/>
</g>
</svg>
